HIERARCHY
ROOT hip
{
  OFFSET 0 0 0
  CHANNELS 6 Xposition Yposition Zposition Zrotation Yrotation Xrotation
  JOINT abdomen
  {
    OFFSET 0 20.6881 -0.73152
    CHANNELS 3 Zrotation Xrotation Yrotation
    JOINT chest
    {
      OFFSET 0 11.7043 -0.48768
      CHANNELS 3 Zrotation Xrotation Yrotation
      JOINT neck
      {
        OFFSET 0 22.1894 -2.19456
        CHANNELS 3 Zrotation Xrotation Yrotation
        JOINT head
        {
          OFFSET -0.24384 7.07133 1.2192
          CHANNELS 3 Zrotation Xrotation Yrotation
          JOINT leftEye
          {
            OFFSET 4.14528 8.04674 8.04672
            CHANNELS 3 Zrotation Xrotation Yrotation
            End Site
            {
              OFFSET 1 0 0
            }
          }
          JOINT rightEye
          {
            OFFSET -3.6576 8.04674 8.04672
            CHANNELS 3 Zrotation Xrotation Yrotation
            End Site
            {
              OFFSET 1 0 0
            }
          }
        }
      }
      JOINT rCollar
      {
        OFFSET -2.68224 19.2634 -4.8768
        CHANNELS 3 Zrotation Xrotation Yrotation
        JOINT rShldr
        {
          OFFSET -8.77824 -1.95073 1.46304
          CHANNELS 3 Zrotation Xrotation Yrotation
          JOINT rForeArm
          {
            OFFSET -28.1742 -1.7115 0.48768
            CHANNELS 3 Zrotation Xrotation Yrotation
            JOINT rHand
            {
              OFFSET -22.5879 0.773209 7.07136
              CHANNELS 3 Zrotation Xrotation Yrotation
              JOINT rThumb1
              {
                OFFSET -1.2192 -0.487915 3.41376
                CHANNELS 3 Zrotation Xrotation Yrotation
                JOINT rThumb2
                {
                  OFFSET -3.37035 -0.52449 3.41376
                  CHANNELS 3 Zrotation Xrotation Yrotation
                  End Site
                  {
                    OFFSET -1.78271 -1.18214 1.43049
                  }
                }
              }
              JOINT rIndex1
              {
                OFFSET -7.75947 0.938293 5.60832
                CHANNELS 3 Zrotation Xrotation Yrotation
                JOINT rIndex2
                {
                  OFFSET -2.54057 -0.884171 1.56538
                  CHANNELS 3 Zrotation Xrotation Yrotation
                  End Site
                  {
                    OFFSET -1.62519 -0.234802 1.16502
                  }
                }
              }
              JOINT rMid1
              {
                OFFSET -8.24714 1.18213 3.41376
                CHANNELS 3 Zrotation Xrotation Yrotation
                JOINT rMid2
                {
                  OFFSET -3.10165 -0.590103 1.0647
                  CHANNELS 3 Zrotation Xrotation Yrotation
                  End Site
                  {
                    OFFSET -2.48547 -0.328903 0.83742
                  }
                }
              }
              JOINT rRing1
              {
                OFFSET -8.82822 0.546677 1.51678
                CHANNELS 3 Zrotation Xrotation Yrotation
                JOINT rRing2
                {
                  OFFSET -2.60934 -0.819778 -0.0198488
                  CHANNELS 3 Zrotation Xrotation Yrotation
                  End Site
                  {
                    OFFSET -2.33842 -0.294052 0.168128
                  }
                }
              }
              JOINT rPinky1
              {
                OFFSET -8.27202 -0.0477905 -0.4584
                CHANNELS 3 Zrotation Xrotation Yrotation
                JOINT rPinky2
                {
                  OFFSET -1.82734 -0.647385 -0.700984
                  CHANNELS 3 Zrotation Xrotation Yrotation
                  End Site
                  {
                    OFFSET -1.69225 -0.51767 -0.607171
                  }
                }
              }
            }
          }
        }
      }
      JOINT lCollar
      {
        OFFSET 2.68224 19.2634 -4.8768
        CHANNELS 3 Zrotation Xrotation Yrotation
        JOINT lShldr
        {
          OFFSET 8.77824 -1.95073 1.46304
          CHANNELS 3 Zrotation Xrotation Yrotation
          JOINT lForeArm
          {
            OFFSET 28.1742 -1.7115 0.48768
            CHANNELS 3 Zrotation Xrotation Yrotation
            JOINT lHand
            {
              OFFSET 22.5879 0.773209 7.07136
              CHANNELS 3 Zrotation Xrotation Yrotation
              JOINT lThumb1
              {
                OFFSET 1.2192 -0.487915 3.41376
                CHANNELS 3 Zrotation Xrotation Yrotation
                JOINT lThumb2
                {
                  OFFSET 3.37035 -0.52449 3.41376
                  CHANNELS 3 Zrotation Xrotation Yrotation
                  End Site
                  {
                    OFFSET 1.78271 -1.18214 1.43049
                  }
                }
              }
              JOINT lIndex1
              {
                OFFSET 7.75947 0.938293 5.60832
                CHANNELS 3 Zrotation Xrotation Yrotation
                JOINT lIndex2
                {
                  OFFSET 2.54057 -0.884171 1.56538
                  CHANNELS 3 Zrotation Xrotation Yrotation
                  End Site
                  {
                    OFFSET 1.62519 -0.234802 1.16502
                  }
                }
              }
              JOINT lMid1
              {
                OFFSET 8.24714 1.18213 3.41376
                CHANNELS 3 Zrotation Xrotation Yrotation
                JOINT lMid2
                {
                  OFFSET 3.10165 -0.590103 1.0647
                  CHANNELS 3 Zrotation Xrotation Yrotation
                  End Site
                  {
                    OFFSET 2.48547 -0.328903 0.83742
                  }
                }
              }
              JOINT lRing1
              {
                OFFSET 8.82822 0.546677 1.51678
                CHANNELS 3 Zrotation Xrotation Yrotation
                JOINT lRing2
                {
                  OFFSET 2.60934 -0.819778 -0.0198488
                  CHANNELS 3 Zrotation Xrotation Yrotation
                  End Site
                  {
                    OFFSET 2.33842 -0.294052 0.168128
                  }
                }
              }
              JOINT lPinky1
              {
                OFFSET 8.27202 -0.0477905 -0.4584
                CHANNELS 3 Zrotation Xrotation Yrotation
                JOINT lPinky2
                {
                  OFFSET 1.82734 -0.647385 -0.700984
                  CHANNELS 3 Zrotation Xrotation Yrotation
                  End Site
                  {
                    OFFSET 1.69225 -0.51767 -0.607171
                  }
                }
              }
            }
          }
        }
      }
    }
  }
  JOINT rButtock
  {
    OFFSET -8.77824 4.35084 1.2192
    CHANNELS 3 Zrotation Xrotation Yrotation
    JOINT rThigh
    {
      OFFSET 0 -1.70687 -2.19456
      CHANNELS 3 Zrotation Xrotation Yrotation
      JOINT rShin
      {
        OFFSET 0 -36.8199 0.73152
        CHANNELS 3 Zrotation Xrotation Yrotation
        JOINT rFoot
        {
          OFFSET 0.73152 -45.1104 -5.12064
          CHANNELS 3 Zrotation Xrotation Yrotation
          End Site
          {
            OFFSET -1.1221 -3.69964 12.103
          }
        }
      }
    }
  }
  JOINT lButtock
  {
    OFFSET 8.77824 4.35084 1.2192
    CHANNELS 3 Zrotation Xrotation Yrotation
    JOINT lThigh
    {
      OFFSET 0 -1.70687 -2.19456
      CHANNELS 3 Zrotation Xrotation Yrotation
      JOINT lShin
      {
        OFFSET 0 -36.8199 0.73152
        CHANNELS 3 Zrotation Xrotation Yrotation
        JOINT lFoot
        {
          OFFSET -0.73152 -45.1104 -5.12064
          CHANNELS 3 Zrotation Xrotation Yrotation
          End Site
          {
            OFFSET 1.1221 -3.69964 12.103
          }
        }
      }
    }
  }
}
MOTION
Frames:	8
Frame Time:	0.00833333
-1.70298 70.4625 -0.561545 209.57 100.075 234.541 5.94932 21.9862 1.09018 0.54716 -4.00163 0.651036 -7.36695 -0.164394 -14.8196 18.3624 -10.9915 -25.5357 -0.0 0.0 0.0 -0.0 0.0 0.0 1.98203e-13 1.22948e-12 -2.15579e-13 58.7484 -20.7835 34.8584 -20.832 -14.0958 40.7386 -163.986 -3.27979 -179.539 -2.53352e-10 1.40492e-09 -6.3876e-10 -3.64022e-10 2.46402e-09 -1.05727e-09 -2.53349e-10 1.40491e-09 -6.38769e-10 7.73091 5.47488 0.417314 -2.53353e-10 1.40492e-09 -6.3876e-10 2.90554 0.965183 0.102902 -2.53348e-10 1.40492e-09 -6.38754e-10 10.2786 0.731801 0.0259123 -2.53358e-10 1.40492e-09 -6.38749e-10 2.22167 -0.733487 -0.20892 1.98189e-13 1.22948e-12 -2.15886e-13 -74.3458 37.5704 5.8055 25.1316 -21.3812 -53.4174 0.430869 -18.3346 2.66943 -9.77588e-10 -1.34063e-09 -2.94468e-09 -1.63656e-09 -2.3396e-09 -5.10196e-09 -9.77595e-10 -1.34063e-09 -2.94467e-09 -7.73091 5.47488 -0.417314 -9.77589e-10 -1.34063e-09 -2.94468e-09 -2.90554 0.965183 -0.102902 -9.77598e-10 -1.34063e-09 -2.94468e-09 -10.2786 0.731801 -0.0259123 -9.77581e-10 -1.34062e-09 -2.94469e-09 -2.22167 -0.733487 0.20892 -2.03217e-16 0.0 -3.88251e-19 -46.1179 -64.3088 -49.6753 -1.42215 65.082 1.8747 7.01078 -15.1475 19.6385 2.03217e-16 0.0 3.88251e-19 37.1818 -57.7511 56.5518 1.72397 67.3674 -2.10987 -6.21578 -13.8129 -18.9032
-1.65394 70.8687 -0.586782 209.835 99.9909 234.799 5.7109 21.5333 1.08943 0.805268 -3.88857 0.637664 -7.36496 -0.111367 -14.7647 18.1755 -10.8164 -25.4646 -0.0 0.0 0.0 -0.0 0.0 0.0 2.1076e-13 1.47154e-12 -2.87769e-13 57.936 -19.8123 33.9298 -21.0263 -14.3606 41.2308 -163.986 -3.30949 -179.534 -3.13133e-10 1.81987e-09 -7.30196e-10 -4.49878e-10 3.16827e-09 -1.21819e-09 -3.13134e-10 1.81987e-09 -7.30198e-10 7.73091 5.47488 0.417314 -3.13135e-10 1.81987e-09 -7.30196e-10 2.90554 0.965183 0.102902 -3.1313e-10 1.81987e-09 -7.30192e-10 10.2786 0.731801 0.0259123 -3.13139e-10 1.81987e-09 -7.30184e-10 2.22167 -0.733487 -0.20892 2.10778e-13 1.47154e-12 -2.88071e-13 -74.5 37.7724 5.66777 25.0881 -21.2863 -53.2618 0.432319 -18.364 2.67404 -1.39328e-09 -1.71957e-09 -3.81026e-09 -2.33998e-09 -3.00029e-09 -6.60084e-09 -1.39329e-09 -1.71957e-09 -3.81025e-09 -7.73091 5.47488 -0.417314 -1.39328e-09 -1.71957e-09 -3.81026e-09 -2.90554 0.965183 -0.102902 -1.39329e-09 -1.71957e-09 -3.81027e-09 -10.2786 0.731801 -0.0259123 -1.39327e-09 -1.71957e-09 -3.81027e-09 -2.22167 -0.733487 0.20892 -2.03217e-16 0.0 -3.88251e-19 -44.4553 -63.8296 -48.0203 -1.32744 64.043 1.78353 6.83427 -14.8309 19.5209 2.03217e-16 0.0 3.88251e-19 35.6667 -57.4537 54.7927 1.58876 66.124 -1.96722 -6.12454 -13.7324 -18.769
-1.58576 71.287 -0.599816 210.102 99.84 234.992 5.51644 21.0891 1.06772 0.985444 -3.76662 0.618559 -7.38076 -0.0729239 -14.7223 18.0969 -10.5437 -25.4125 -0.0 0.0 0.0 -0.0 0.0 0.0 1.89232e-13 1.47903e-12 -3.01208e-13 57.2859 -18.873 33.0634 -21.2008 -14.6013 41.6811 -163.987 -3.2114 -179.548 -2.87233e-10 1.83605e-09 -6.99394e-10 -4.1104e-10 3.18924e-09 -1.17132e-09 -2.87235e-10 1.83605e-09 -6.99394e-10 7.73091 5.47488 0.417314 -2.87235e-10 1.83605e-09 -6.99394e-10 2.90554 0.965183 0.102902 -2.8723e-10 1.83605e-09 -6.99391e-10 10.2786 0.731801 0.0259123 -2.87239e-10 1.83605e-09 -6.99382e-10 2.22167 -0.733487 -0.20892 1.89266e-13 1.47903e-12 -3.01507e-13 -74.5787 37.9688 5.54013 25.054 -21.2121 -53.1408 0.434212 -18.4026 2.68005 -1.44058e-09 -1.72107e-09 -3.80069e-09 -2.42228e-09 -3.00254e-09 -6.58357e-09 -1.44059e-09 -1.72107e-09 -3.80068e-09 -7.73091 5.47488 -0.417314 -1.44058e-09 -1.72107e-09 -3.80069e-09 -2.90554 0.965183 -0.102902 -1.4406e-09 -1.72107e-09 -3.80069e-09 -10.2786 0.731801 -0.0259123 -1.44057e-09 -1.72107e-09 -3.8007e-09 -2.22167 -0.733487 0.20892 -2.03217e-16 0.0 -3.88251e-19 -42.8022 -63.3087 -46.4071 -1.24003 63.0002 1.6991 6.65403 -14.5199 19.3863 2.03217e-16 0.0 3.88251e-19 34.2512 -57.0939 53.14 1.47183 64.9264 -1.8432 -6.03601 -13.7042 -18.5902
-1.47883 71.7032 -0.590507 209.36 99.644 234.124 5.38959 20.6546 1.01767 1.04901 -3.62748 0.591605 -7.42451 -0.0642605 -14.6989 18.1853 -10.1269 -25.3889 -0.0 0.0 0.0 -0.0 0.0 0.0 1.0086e-13 1.07699e-12 -2.13456e-13 56.8422 -17.9847 32.274 -21.3489 -14.808 42.0688 -163.99 -2.89925 -179.592 -9.03309e-11 1.15208e-09 -4.55171e-10 -1.22462e-10 2.01255e-09 -7.6173e-10 -9.03297e-11 1.15208e-09 -4.55176e-10 7.73091 5.47488 0.417314 -9.03325e-11 1.15208e-09 -4.55172e-10 2.90554 0.965183 0.102902 -9.03295e-11 1.15208e-09 -4.55169e-10 10.2786 0.731801 0.0259123 -9.03383e-11 1.15208e-09 -4.55159e-10 2.22167 -0.733487 -0.20892 1.00888e-13 1.07698e-12 -2.13755e-13 -74.5352 38.174 5.41998 25.035 -21.1711 -53.0739 0.43712 -18.4616 2.68928 -8.35953e-10 -1.04592e-09 -2.2114e-09 -1.40602e-09 -1.82438e-09 -3.82939e-09 -8.35966e-10 -1.04592e-09 -2.21138e-09 -7.73091 5.47488 -0.417314 -8.35956e-10 -1.04592e-09 -2.21139e-09 -2.90554 0.965183 -0.102902 -8.3597e-10 -1.04592e-09 -2.21139e-09 -10.2786 0.731801 -0.0259123 -8.3595e-10 -1.04592e-09 -2.2114e-09 -2.22167 -0.733487 0.20892 -2.03217e-16 0.0 -3.88251e-19 -41.1399 -62.7384 -44.8348 -1.15861 61.9442 1.62012 6.46609 -14.2018 19.2359 2.03217e-16 0.0 3.88251e-19 32.9646 -56.6709 51.6195 1.37084 63.7863 -1.73563 -5.95152 -13.7554 -18.3465
-1.37149 72.1182 -0.586386 208.914 99.4543 233.513 5.30506 20.2201 0.949606 1.04772 -3.47321 0.559963 -7.48917 -0.0708143 -14.6872 18.3767 -9.62384 -25.3831 -0.0 0.0 0.0 -0.0 0.0 0.0 -3.46944e-14 4.04405e-13 -6.02815e-14 56.531 -17.1423 31.5381 -21.4771 -14.9901 42.4041 -163.994 -2.41451 -179.66 2.25964e-10 1.42613e-11 -6.88998e-11 3.40604e-10 5.99483e-11 -1.11002e-10 2.25971e-10 1.42558e-11 -6.89141e-11 7.73091 5.47488 0.417314 2.25963e-10 1.42603e-11 -6.89031e-11 2.90554 0.965183 0.102902 2.25964e-10 1.4259e-11 -6.88982e-11 10.2786 0.731801 0.0259123 2.25956e-10 1.42599e-11 -6.88898e-11 2.22167 -0.733487 -0.20892 -3.46837e-14 4.04403e-13 -6.05827e-14 -74.4115 38.3882 5.29285 25.0228 -21.1448 -53.0308 0.440895 -18.5378 2.7012 1.94648e-10 8.71233e-11 4.43588e-10 3.27417e-10 1.52485e-10 7.71088e-10 1.9464e-10 8.71264e-11 4.43595e-10 -7.73091 5.47488 -0.417314 1.94646e-10 8.71256e-11 4.43591e-10 -2.90554 0.965183 -0.102902 1.94634e-10 8.71252e-11 4.4359e-10 -10.2786 0.731801 -0.0259123 1.9465e-10 8.7126e-11 4.43591e-10 -2.22167 -0.733487 0.20892 -2.03217e-16 0.0 -3.88251e-19 -39.5159 -62.1396 -43.3268 -1.08366 60.8919 1.5474 6.27007 -13.8569 19.0823 2.03217e-16 0.0 3.88251e-19 31.7885 -56.2068 50.213 1.28163 62.6883 -1.64045 -5.8676 -13.853 -18.0603
-1.28326 72.515 -0.579776 208.715 99.2441 233.193 5.22675 19.7903 0.873019 1.02998 -3.32094 0.526035 -7.55698 -0.0693598 -14.6785 18.5873 -9.09646 -25.3848 -0.0 0.0 0.0 -0.0 0.0 0.0 -1.58467e-13 -2.49273e-13 8.96503e-14 56.2897 -16.3209 30.8264 -21.5998 -15.1671 42.7243 -163.996 -1.92025 -179.73 5.0839e-10 -1.08406e-09 3.07785e-10 7.53241e-10 -1.82753e-09 5.23477e-10 5.08402e-10 -1.08407e-09 3.07761e-10 7.73091 5.47488 0.417314 5.08389e-10 -1.08407e-09 3.0778e-10 2.90554 0.965183 0.102902 5.08387e-10 -1.08407e-09 3.07786e-10 10.2786 0.731801 0.0259123 5.0838e-10 -1.08406e-09 3.07793e-10 2.22167 -0.733487 -0.20892 -1.5848e-13 -2.49275e-13 8.93487e-14 -74.282 38.579 5.17578 25.0114 -21.1203 -52.9899 0.444392 -18.6078 2.71216 1.18273e-09 1.1689e-09 2.9645e-09 1.98987e-09 2.03992e-09 5.13912e-09 1.18273e-09 1.16891e-09 2.9645e-09 -7.73091 5.47488 -0.417314 1.18273e-09 1.16891e-09 2.9645e-09 -2.90554 0.965183 -0.102902 1.18272e-09 1.16891e-09 2.9645e-09 -10.2786 0.731801 -0.0259123 1.18273e-09 1.16891e-09 2.9645e-09 -2.22167 -0.733487 0.20892 -2.03217e-16 0.0 -3.88251e-19 -37.9467 -61.5163 -41.8781 -1.01495 59.8518 1.48047 6.07621 -13.528 18.9135 2.03217e-16 0.0 3.88251e-19 30.6803 -55.7051 48.8917 1.20148 61.6177 -1.55471 -5.78185 -13.9612 -17.7598
-1.18781 72.8896 -0.569403 208.137 99.0561 232.489 5.11886 19.3704 0.79728 1.04411 -3.18781 0.492216 -7.61019 -0.0366664 -14.6638 18.733 -8.60643 -25.3828 -0.0 0.0 0.0 -0.0 0.0 0.0 -2.11496e-13 -5.94615e-13 1.67675e-13 56.0589 -15.4932 30.1114 -21.7303 -15.3576 43.0669 -163.997 -1.57947 -179.778 6.03682e-10 -1.64954e-09 5.23249e-10 8.90534e-10 -2.80884e-09 8.84321e-10 6.03697e-10 -1.64955e-09 5.2322e-10 7.73091 5.47488 0.417314 6.03682e-10 -1.64954e-09 5.23243e-10 2.90554 0.965183 0.102902 6.0368e-10 -1.64954e-09 5.23249e-10 10.2786 0.731801 0.0259123 6.03672e-10 -1.64954e-09 5.23255e-10 2.22167 -0.733487 -0.20892 -2.11531e-13 -5.94614e-13 1.67377e-13 -74.2218 38.714 5.08617 24.9946 -21.0842 -52.9299 0.44643 -18.6483 2.7185 1.65981e-09 1.69026e-09 4.15158e-09 2.79317e-09 2.94976e-09 7.19597e-09 1.65981e-09 1.69027e-09 4.15158e-09 -7.73091 5.47488 -0.417314 1.65981e-09 1.69027e-09 4.15158e-09 -2.90554 0.965183 -0.102902 1.6598e-09 1.69027e-09 4.15159e-09 -10.2786 0.731801 -0.0259123 1.65981e-09 1.69027e-09 4.15159e-09 -2.22167 -0.733487 0.20892 -2.03217e-16 0.0 -3.88251e-19 -36.4487 -60.872 -40.4833 -0.952249 58.8324 1.41882 5.8945 -13.2577 18.7174 2.03217e-16 0.0 3.88251e-19 29.5988 -55.167 47.6275 1.12837 60.5594 -1.47614 -5.69276 -14.0439 -17.4732
-1.06749 73.2802 -0.564533 207.711 98.8864 231.877 4.96408 18.9682 0.72483 1.10796 -3.08461 0.458988 -7.64692 0.0380071 -14.6411 18.7875 -8.17652 -25.3735 -0.0 0.0 0.0 -0.0 0.0 0.0 -1.49588e-13 -4.66033e-13 1.35361e-13 55.8226 -14.6547 29.3784 -21.8762 -15.5731 43.4536 -163.997 -1.4327 -179.799 4.15551e-10 -1.40415e-09 4.89203e-10 6.10755e-10 -2.41034e-09 8.22172e-10 4.15564e-10 -1.40416e-09 4.89176e-10 7.73091 5.47488 0.417314 4.1555e-10 -1.40415e-09 4.89196e-10 2.90554 0.965183 0.102902 4.15551e-10 -1.40415e-09 4.89202e-10 10.2786 0.731801 0.0259123 4.15544e-10 -1.40415e-09 4.89208e-10 2.22167 -0.733487 -0.20892 -1.49643e-13 -4.66024e-13 1.35075e-13 -74.2641 38.7716 5.03351 24.9696 -21.0308 -52.8412 0.446228 -18.6442 2.71787 1.34281e-09 1.37246e-09 3.33781e-09 2.26025e-09 2.39552e-09 5.78537e-09 1.34281e-09 1.37246e-09 3.33781e-09 -7.73091 5.47488 -0.417314 1.34281e-09 1.37246e-09 3.33781e-09 -2.90554 0.965183 -0.102902 1.34281e-09 1.37246e-09 3.33781e-09 -10.2786 0.731801 -0.0259123 1.34281e-09 1.37246e-09 3.33781e-09 -2.22167 -0.733487 0.20892 -2.03217e-16 0.0 -3.88251e-19 -35.0224 -60.208 -39.1317 -0.89523 57.8382 1.3619 5.72873 -13.0791 18.4743 2.03217e-16 0.0 3.88251e-19 28.5331 -54.5859 46.4318 1.06149 59.5146 -1.40403 -5.5972 -14.0908 -17.1991
